#!OML:ASF F:\VICON\USERDATA\INSTALL\rory3\rory3.ASF
:FULLY-SPECIFIED
:DEGREES
1
root -4.24778 14.3807 -12.363 -545.89 -34.2362 541.01
lowerback 19.2489 1.77668 -6.58951
upperback -0.20242 1.11435 3.25426
thorax -11.301 0.971926 7.11357
lowerneck -13.6635 -6.55719 -2.10056
upperneck 19.8397 -9.39103 1.50942
head 8.60778 -4.58774 -0.249158
rclavicle -6.48038e-014 -3.97569e-015
rhumerus 31.9889 -1.20869 -68.2837
rradius 41.6917
rwrist 23.943
rhand 0.790053 22.3746
rfingers 7.12502
rthumb 26.3469 -5.81521
lclavicle -6.48038e-014 -3.97569e-015
lhumerus 55.4153 -29.639 52.8977
lradius 42.3985
lwrist -6.90994
lhand -2.33085 14.8072
lfingers 7.12502
lthumb 23.356 43.4102
rfemur -15.9166 19.5895 -10.0771
rtibia 15.1539
rfoot -19.6332 -6.73962
rtoes 39.6002
lfemur -33.7531 2.25909 -23.952
ltibia 70.8353
lfoot -26.6354 -3.11631
ltoes 11.0429
2
root -4.24216 14.4044 -12.3719 -546.377 -34.8229 541.539
lowerback 19.0278 1.82553 -6.41754
upperback -0.0576205 1.24052 3.40921
thorax -11.033 1.00726 7.1479
lowerneck -13.795 -6.53019 -2.09704
upperneck 19.91 -9.3719 1.60225
head 8.66 -4.56465 -0.223464
rclavicle 5.66536e-015 -6.0033e-014
rhumerus 32.2869 -1.32255 -68.3918
rradius 41.4202
rwrist 23.993
rhand 0.80417 23.3137
rfingers 7.12502
rthumb 26.3604 -4.87411
lclavicle 5.66536e-015 -6.0033e-014
lhumerus 55.1702 -29.5438 53.0391
lradius 42.5159
lwrist -6.81806
lhand -2.36171 14.8909
lfingers 7.12502
lthumb 23.3264 43.4977
rfemur -15.079 17.8267 -9.02066
rtibia 15.0579
rfoot -13.3211 -13.0043
rtoes 2.7334
lfemur -33.5205 1.96154 -23.4985
ltibia 70.754
lfoot -26.6025 -3.24606
ltoes 9.9429
3
root -4.23185 14.3733 -12.3689 -546.179 -35.6279 541.369
lowerback 19.0558 1.84113 -6.31884
upperback -0.19977 1.27698 3.27001
thorax -11.2094 1.03027 6.92298
lowerneck -14.3613 -6.39947 -2.33178
upperneck 20.7085 -9.22336 1.75181
head 9.05374 -4.48593 -0.159765
rclavicle -9.69075e-014 1.31198e-014
rhumerus 31.9754 -0.835637 -68.0029
rradius 41.6561
rwrist 22.7623
rhand 0.251215 21.9677
rfingers 7.12502
rthumb 25.831 -6.29822
lclavicle -9.69075e-014 1.31198e-014
lhumerus 54.8229 -29.4945 53.6474
lradius 42.3422
lwrist -7.22586
lhand -2.42791 14.7216
lfingers 7.12502
lthumb 23.2629 43.3364
rfemur -14.8087 18.4028 -9.70246
rtibia 14.6273
rfoot -15.2675 -10.1302
rtoes 17.6341
lfemur -33.9327 1.24175 -23.8024
ltibia 70.972
lfoot -26.3797 -3.24722
ltoes 9.97081
4
root -4.21674 14.4023 -12.3713 -546.694 -36.2354 541.918
lowerback 19.1476 1.91258 -6.14191
upperback -0.162611 1.41906 3.43608
thorax -11.2441 1.09066 6.96845
lowerneck -14.4293 -6.37275 -2.28447
upperneck 20.8224 -9.16933 1.61919
head 9.09499 -4.46845 -0.209717
rclavicle -1.96051e-014 -1.15295e-014
rhumerus 32.0622 -0.989327 -68.0146
rradius 41.4691
rwrist 23.3049
rhand 0.564865 23.0301
rfingers 7.12502
rthumb 26.1313 -5.19175
lclavicle -1.96051e-014 -1.15295e-014
lhumerus 55.2096 -29.5761 53.2176
lradius 42.2806
lwrist -7.19335
lhand -2.5778 14.79
lfingers 7.12502
lthumb 23.1191 43.4229
rfemur -14.5094 18.2698 -8.85323
rtibia 15.3716
rfoot -14.5819 -10.6446
rtoes 12.6068
lfemur -33.7946 1.10707 -23.3985
ltibia 70.715
lfoot -26.1512 -2.20904
ltoes 4.07497
5
root -4.19929 14.414 -12.3853 -547.232 -36.8857 542.739
lowerback 18.896 1.91682 -5.79668
upperback -0.0652332 1.53081 3.66372
thorax -11.0067 1.11562 6.98963
lowerneck -14.1339 -6.4087 -1.86205
upperneck 20.3995 -9.1939 1.23996
head 8.85452 -4.49124 -0.383171
rclavicle -6.45056e-014 -3.18055e-015
rhumerus 32.2222 -0.899019 -67.8314
rradius 41.6003
rwrist 23.375
rhand 0.908401 22.9177
rfingers 7.12502
rthumb 26.4602 -5.25514
lclavicle -6.45056e-014 -3.18055e-015
lhumerus 55.2279 -29.3539 53.3507
lradius 42.1992
lwrist -7.4993
lhand -2.52831 14.9153
lfingers 7.12502
lthumb 23.1666 43.5422
rfemur -14.0783 18.3255 -8.00119
rtibia 15.4842
rfoot -13.7586 -10.8496
rtoes 7.13717
lfemur -33.9524 0.926675 -22.638
ltibia 70.7986
lfoot -25.9901 -2.51624
ltoes 3.88023
6
root -4.19678 14.4082 -12.3886 -546.8 -37.77 542.091
lowerback 18.9484 1.94954 -6.14283
upperback -0.238092 1.48559 3.4192
thorax -11.2272 1.12694 6.92901
lowerneck -13.4811 -6.49037 -1.67739
upperneck 19.8908 -9.28818 1.0744
head 8.54586 -4.55185 -0.439727
rclavicle -5.34234e-015 1.19271e-014
rhumerus 32.073 -0.950825 -67.9321
rradius 41.4915
rwrist 23.5973
rhand 0.687703 23.3841
rfingers 7.12502
rthumb 26.2489 -4.82035
lclavicle -5.34234e-015 1.19271e-014
lhumerus 54.9961 -29.324 53.6144
lradius 42.3372
lwrist -8.08067
lhand -2.4381 14.8878
lfingers 7.12502
lthumb 23.2531 43.5038
rfemur -13.8718 17.3706 -8.64077
rtibia 15.8579
rfoot -12.7387 -10.395
rtoes 0.290313
lfemur -33.975 0.2317 -23.3985
ltibia 70.5685
lfoot -25.7375 -2.38125
ltoes 3.87485
7
root -4.18049 14.4063 -12.39 -547.124 -38.8345 542.538
lowerback 19.066 1.89195 -5.70543
upperback -0.197661 1.50124 3.47508
thorax -11.2385 1.10737 6.73306
lowerneck -14.1976 -6.51575 -1.90221
upperneck 20.359 -9.31019 1.21984
head 8.85505 -4.54497 -0.398274
rclavicle 5.19946e-014 -1.86858e-014
rhumerus 32.157 -0.481499 -67.323
rradius 41.7166
rwrist 22.2152
rhand -0.164041 21.7084
rfingers 7.12502
rthumb 25.4332 -6.61483
lclavicle 5.19946e-014 -1.86858e-014
lhumerus 55.3926 -29.6028 52.9325
lradius 42.5574
lwrist -6.84382
lhand -3.64625 15.8814
lfingers 7.12502
lthumb 22.0936 44.6392
rfemur -13.2445 16.9096 -8.29342
rtibia 15.9584
rfoot -12.1643 -10.2694
rtoes -5.86828
lfemur -34.202 -0.446088 -23.2063
ltibia 70.5816
lfoot -25.5458 -1.60569
ltoes -0.664595
